<svg width="32" height="32" viewBox="0 0 32 32" fill="none" xmlns="http://www.w3.org/2000/svg">
<path d="M16 9.66C17.5188 9.66 18.75 8.37954 18.75 6.8C18.75 5.22047 17.5188 3.94 16 3.94C14.4812 3.94 13.25 5.22047 13.25 6.8C13.25 8.37954 14.4812 9.66 16 9.66Z" fill="black"/>
<path d="M17.68 10.1H14.32C13.4277 10.062 12.5568 10.3799 11.8986 10.9836C11.2405 11.5874 10.8489 12.4277 10.81 13.32V17.67C10.8144 18.1831 10.9771 18.6824 11.2761 19.0994C11.575 19.5165 11.9955 19.831 12.48 20V25.8C12.4603 26.3158 12.6408 26.8192 12.9837 27.205C13.3267 27.5908 13.8055 27.8291 14.32 27.87H17.68C18.1945 27.8291 18.6733 27.5908 19.0163 27.205C19.3592 26.8192 19.5397 26.3158 19.52 25.8V20C20.0013 19.8322 20.4196 19.5207 20.7182 19.1076C21.0169 18.6945 21.1816 18.1997 21.19 17.69V13.32C21.1511 12.4277 20.7595 11.5874 20.1014 10.9836C19.4432 10.3799 18.5723 10.062 17.68 10.1V10.1ZM6 10.46C6.33259 10.472 6.66117 10.3843 6.94357 10.2082C7.22598 10.0321 7.44934 9.77566 7.58499 9.47175C7.72063 9.16785 7.76239 8.83034 7.70488 8.50254C7.64738 8.17474 7.49325 7.8716 7.26227 7.63201C7.03128 7.39241 6.73398 7.2273 6.4085 7.15785C6.08302 7.0884 5.74422 7.11778 5.43555 7.24222C5.12689 7.36666 4.86245 7.58049 4.67616 7.85627C4.48986 8.13205 4.39021 8.4572 4.39 8.79C4.38602 9.00538 4.42452 9.21943 4.50328 9.41993C4.58205 9.62042 4.69954 9.80344 4.84905 9.95852C4.99856 10.1136 5.17716 10.2377 5.37464 10.3238C5.57212 10.4098 5.78462 10.4561 6 10.46V10.46ZM7.2 11.26H4.8C4.09398 11.2273 3.40362 11.4748 2.87921 11.9486C2.3548 12.4225 2.0388 13.0843 2 13.79V16.79C2.00582 17.2288 2.15583 17.6536 2.4269 17.9987C2.69797 18.3439 3.07505 18.5903 3.5 18.7V22.51C3.4722 22.9398 3.61352 23.3633 3.89378 23.6903C4.17405 24.0173 4.57105 24.2217 5 24.26H7.09C7.30692 24.2436 7.51846 24.1844 7.71244 24.086C7.90641 23.9875 8.079 23.8516 8.22027 23.6862C8.36154 23.5208 8.4687 23.329 8.53558 23.122C8.60247 22.915 8.62776 22.6968 8.61 22.48V18.64C9.00962 18.5121 9.35887 18.2617 9.60833 17.9243C9.85778 17.5869 9.99481 17.1796 10 16.76V13.76C9.95363 13.0596 9.63435 12.4054 9.11078 11.9379C8.5872 11.4705 7.90113 11.227 7.2 11.26V11.26ZM26 10.46C26.3326 10.472 26.6612 10.3843 26.9436 10.2082C27.226 10.0321 27.4493 9.77566 27.585 9.47175C27.7206 9.16785 27.7624 8.83034 27.7049 8.50254C27.6474 8.17474 27.4933 7.8716 27.2623 7.63201C27.0313 7.39241 26.734 7.2273 26.4085 7.15785C26.083 7.0884 25.7442 7.11778 25.4356 7.24222C25.1269 7.36666 24.8624 7.58049 24.6762 7.85627C24.4899 8.13205 24.3902 8.4572 24.39 8.79C24.386 9.00538 24.4245 9.21943 24.5033 9.41993C24.582 9.62042 24.6995 9.80344 24.8491 9.95852C24.9986 10.1136 25.1772 10.2377 25.3746 10.3238C25.5721 10.4098 25.7846 10.4561 26 10.46V10.46ZM27.2 11.26H24.8C24.094 11.2273 23.4036 11.4748 22.8792 11.9486C22.3548 12.4225 22.0388 13.0843 22 13.79V16.79C22.0058 17.2288 22.1558 17.6536 22.4269 17.9987C22.698 18.3439 23.075 18.5903 23.5 18.7V22.51C23.4722 22.9398 23.6135 23.3633 23.8938 23.6903C24.1741 24.0173 24.571 24.2217 25 24.26H27.07C27.2869 24.2436 27.4985 24.1844 27.6924 24.086C27.8864 23.9875 28.059 23.8516 28.2003 23.6862C28.3415 23.5208 28.4487 23.329 28.5156 23.122C28.5825 22.915 28.6078 22.6968 28.59 22.48V18.64C28.9933 18.5155 29.347 18.2666 29.6002 17.9289C29.8535 17.5912 29.9934 17.1821 30 16.76V13.76C29.9536 13.0596 29.6344 12.4054 29.1108 11.9379C28.5872 11.4705 27.9011 11.227 27.2 11.26V11.26Z" fill="black"/>
</svg>
